<?xml version="1.0" standalone="no"?>
<!DOCTYPE svg PUBLIC "-//W3C//DTD SVG 20010904//EN"
 "http://www.w3.org/TR/2001/REC-SVG-20010904/DTD/svg10.dtd">
<svg version="1.0" xmlns="http://www.w3.org/2000/svg"
 width="225.000000pt" height="225.000000pt" viewBox="0 0 225.000000 225.000000"
 preserveAspectRatio="xMidYMid meet">
<metadata>
Created by potrace 1.15, written by Peter Selinger 2001-2017
</metadata>
<g transform="translate(0.000000,225.000000) scale(0.100000,-0.100000)"
fill="#000000" stroke="none">
<path d="M985 2240 c-242 -31 -455 -134 -633 -304 -235 -225 -346 -485 -346
-811 0 -322 114 -588 346 -811 159 -152 330 -241 557 -290 93 -20 318 -23 411
-5 155 30 313 95 441 181 81 55 233 207 287 286 152 226 221 496 192 752 -30
270 -146 509 -336 692 -163 156 -338 250 -555 295 -90 19 -274 26 -364 15z
m357 -254 c168 -43 314 -130 434 -259 111 -120 188 -269 220 -426 20 -102 15
-313 -11 -406 -26 -98 -108 -254 -172 -330 -120 -143 -292 -255 -463 -302 -94
-25 -348 -25 -445 1 -255 68 -460 236 -580 475 -106 213 -116 490 -25 718 99
247 330 455 582 522 101 27 107 28 244 30 98 1 139 -4 216 -23z"/>
<path d="M1001 1564 c-80 -21 -144 -60 -205 -124 -84 -87 -126 -192 -126 -310
0 -117 42 -222 123 -308 61 -63 115 -97 198 -123 114 -36 255 -18 361 44 54
31 139 120 166 173 72 141 68 312 -11 446 -32 54 -121 139 -175 167 -97 50
-226 63 -331 35z m360 -75 c27 -52 7 -99 -141 -337 -79 -125 -149 -236 -156
-247 -13 -20 -11 -20 129 -17 192 4 189 5 185 -66 l-3 -57 -239 -3 c-167 -2
-243 1 -252 9 -8 7 -14 31 -14 58 0 44 12 67 160 302 l160 254 -153 5 -152 5
-3 44 c-6 75 -18 71 237 71 225 0 231 0 242 -21z"/>
</g>
</svg>
